<svg id="__1" data-name="1" xmlns="http://www.w3.org/2000/svg" viewBox="0 0 671.42 670.29"><defs><style>.cls-2,.cls-3{stroke-width:0}.cls-2{fill:#ffdf99}.cls-3{fill:#ff5d50}</style><clipPath id="clippath"><path stroke-width="0" fill="none" d="M72.44 137.09h351.62v394.99H72.44z"/></clipPath></defs><path class="cls-2" d="M434.5 670.29h160.56c42.15 0 76.35-34.16 76.35-76.35V261.71c0-38.71-31.38-70.13-70.12-70.13H434.5v478.7zm0 0"/><path class="cls-3" d="M578.07 670.29H108.71C48.66 670.29 0 621.63 0 561.58V72.38C0 32.4 32.4 0 72.38 0h347.63c39.98 0 72.38 32.4 72.38 72.38v496.58c0 97.81 85.69 101.34 85.69 101.34zm0 0"/><g><g clip-path="url(#clippath)"><path class="cls-2" d="M209.24 152.44c-2.97 32.92-16.58 94.52-73.09 153.88 1.68-21.9-3.24-38.2-8.68-49.1-3.01-6-11.89-4.83-13.17 1.75-2.62 13.43-9.39 34.23-26.27 62.83-32.67 55.36-28.53 209.73 155.4 209.73s196.3-160.91 170.17-226.22c-17.05-42.62-42.85-69.56-58.75-83.15-5.21-4.46-13.29-.89-13.5 5.95-.42 13.89-3.34 33.46-15.08 46.58-.3-24.07-17.4-95.03-92.32-135.38-10.62-5.72-23.61 1.12-24.7 13.12zm0 0"/></g><path class="cls-3" d="M334 412.89c-1.92-20.55-27.67-75.96-96.97-112.38-4.83-2.55-10.53 1.43-9.81 6.84 2.85 21.36 5.91 64.07-10.98 84.25 1.85-18.42-8.27-33.67-16.72-43.01-3.83-4.2-10.74-2.13-11.63 3.5-1.61 10.18-5.86 25.66-16.67 44.67-19.19 33.76-39.67 86.04 56.81 134.38 5 .26 10.11.4 15.39.4s10.06-.14 14.92-.4c72.18-27.13 79.11-81.16 75.65-118.24zm0 0"/></g></svg>